<mxfile host="65bd71144e">
    <diagram id="0X8y-Exr_uNctiU-PQKU" name="Page-1">
        <mxGraphModel dx="1733" dy="647" grid="1" gridSize="10" guides="1" tooltips="1" connect="1" arrows="1" fold="1" page="1" pageScale="1" pageWidth="827" pageHeight="1169" math="0" shadow="0">
            <root>
                <mxCell id="0"/>
                <mxCell id="1" parent="0"/>
                <mxCell id="42" style="edgeStyle=orthogonalEdgeStyle;html=1;" edge="1" parent="1" source="23" target="41">
                    <mxGeometry relative="1" as="geometry">
                        <Array as="points">
                            <mxPoint x="90" y="325"/>
                            <mxPoint x="90" y="381"/>
                        </Array>
                    </mxGeometry>
                </mxCell>
                <mxCell id="43" value="Описывает свои&lt;br&gt;потребности" style="edgeLabel;html=1;align=center;verticalAlign=middle;resizable=0;points=[];" vertex="1" connectable="0" parent="42">
                    <mxGeometry x="0.5198" relative="1" as="geometry">
                        <mxPoint x="61" y="-56" as="offset"/>
                    </mxGeometry>
                </mxCell>
                <mxCell id="23" value="" style="swimlane;whiteSpace=wrap;html=1;" vertex="1" parent="1">
                    <mxGeometry x="210" y="140" width="370" height="370" as="geometry"/>
                </mxCell>
                <mxCell id="18" value="Магазин" style="html=1;verticalLabelPosition=bottom;align=center;labelBackgroundColor=#ffffff;verticalAlign=top;strokeWidth=2;strokeColor=#0080F0;shadow=0;dashed=0;shape=mxgraph.ios7.icons.bag;" vertex="1" parent="23">
                    <mxGeometry x="260" y="40" width="60" height="60" as="geometry"/>
                </mxCell>
                <mxCell id="22" value="" style="verticalLabelPosition=bottom;html=1;verticalAlign=top;align=center;strokeColor=none;fillColor=#00BEF2;shape=mxgraph.azure.azure_marketplace;" vertex="1" parent="23">
                    <mxGeometry x="30" y="290" width="40" height="50" as="geometry"/>
                </mxCell>
                <mxCell id="24" value="" style="verticalLabelPosition=bottom;html=1;verticalAlign=top;align=center;strokeColor=none;fillColor=#00BEF2;shape=mxgraph.azure.azure_marketplace;" vertex="1" parent="23">
                    <mxGeometry x="110" y="290" width="40" height="50" as="geometry"/>
                </mxCell>
                <mxCell id="25" value="" style="verticalLabelPosition=bottom;html=1;verticalAlign=top;align=center;strokeColor=none;fillColor=#00BEF2;shape=mxgraph.azure.azure_marketplace;" vertex="1" parent="23">
                    <mxGeometry x="190" y="290" width="40" height="50" as="geometry"/>
                </mxCell>
                <mxCell id="26" value="" style="verticalLabelPosition=bottom;html=1;verticalAlign=top;align=center;strokeColor=none;fillColor=#00BEF2;shape=mxgraph.azure.azure_marketplace;" vertex="1" parent="23">
                    <mxGeometry x="270" y="290" width="40" height="50" as="geometry"/>
                </mxCell>
                <mxCell id="27" value="" style="verticalLabelPosition=bottom;html=1;verticalAlign=top;align=center;strokeColor=none;fillColor=#00BEF2;shape=mxgraph.azure.azure_marketplace;" vertex="1" parent="23">
                    <mxGeometry x="30" y="210" width="40" height="50" as="geometry"/>
                </mxCell>
                <mxCell id="28" value="" style="verticalLabelPosition=bottom;html=1;verticalAlign=top;align=center;strokeColor=none;fillColor=#00BEF2;shape=mxgraph.azure.azure_marketplace;" vertex="1" parent="23">
                    <mxGeometry x="110" y="210" width="40" height="50" as="geometry"/>
                </mxCell>
                <mxCell id="29" value="" style="verticalLabelPosition=bottom;html=1;verticalAlign=top;align=center;strokeColor=none;fillColor=#00BEF2;shape=mxgraph.azure.azure_marketplace;" vertex="1" parent="23">
                    <mxGeometry x="190" y="210" width="40" height="50" as="geometry"/>
                </mxCell>
                <mxCell id="30" value="" style="verticalLabelPosition=bottom;html=1;verticalAlign=top;align=center;strokeColor=none;fillColor=#00BEF2;shape=mxgraph.azure.azure_marketplace;" vertex="1" parent="23">
                    <mxGeometry x="270" y="210" width="40" height="50" as="geometry"/>
                </mxCell>
                <mxCell id="31" value="" style="verticalLabelPosition=bottom;html=1;verticalAlign=top;align=center;strokeColor=none;fillColor=#00BEF2;shape=mxgraph.azure.azure_marketplace;" vertex="1" parent="23">
                    <mxGeometry x="30" y="130" width="40" height="50" as="geometry"/>
                </mxCell>
                <mxCell id="32" value="" style="verticalLabelPosition=bottom;html=1;verticalAlign=top;align=center;strokeColor=none;fillColor=#00BEF2;shape=mxgraph.azure.azure_marketplace;" vertex="1" parent="23">
                    <mxGeometry x="110" y="130" width="40" height="50" as="geometry"/>
                </mxCell>
                <mxCell id="33" value="" style="verticalLabelPosition=bottom;html=1;verticalAlign=top;align=center;strokeColor=none;fillColor=#00BEF2;shape=mxgraph.azure.azure_marketplace;" vertex="1" parent="23">
                    <mxGeometry x="190" y="130" width="40" height="50" as="geometry"/>
                </mxCell>
                <mxCell id="34" value="" style="verticalLabelPosition=bottom;html=1;verticalAlign=top;align=center;strokeColor=none;fillColor=#00BEF2;shape=mxgraph.azure.azure_marketplace;" vertex="1" parent="23">
                    <mxGeometry x="270" y="130" width="40" height="50" as="geometry"/>
                </mxCell>
                <mxCell id="36" style="edgeStyle=orthogonalEdgeStyle;html=1;" edge="1" parent="1" source="35">
                    <mxGeometry relative="1" as="geometry">
                        <mxPoint x="210" y="240" as="targetPoint"/>
                    </mxGeometry>
                </mxCell>
                <mxCell id="37" value="Покупает&lt;br&gt;товар" style="edgeLabel;html=1;align=center;verticalAlign=middle;resizable=0;points=[];" vertex="1" connectable="0" parent="36">
                    <mxGeometry x="0.4409" y="-2" relative="1" as="geometry">
                        <mxPoint x="-38" y="-1" as="offset"/>
                    </mxGeometry>
                </mxCell>
                <mxCell id="35" value="Покупатель&lt;br&gt;" style="shape=umlActor;verticalLabelPosition=bottom;verticalAlign=top;html=1;outlineConnect=0;" vertex="1" parent="1">
                    <mxGeometry x="-43.5" y="210" width="30" height="60" as="geometry"/>
                </mxCell>
                <mxCell id="44" style="edgeStyle=orthogonalEdgeStyle;html=1;" edge="1" parent="1" source="41">
                    <mxGeometry relative="1" as="geometry">
                        <mxPoint x="210" y="430" as="targetPoint"/>
                        <Array as="points">
                            <mxPoint x="90" y="381"/>
                            <mxPoint x="90" y="430"/>
                        </Array>
                    </mxGeometry>
                </mxCell>
                <mxCell id="45" value="Поставляет&lt;br&gt;товары" style="edgeLabel;html=1;align=center;verticalAlign=middle;resizable=0;points=[];" vertex="1" connectable="0" parent="44">
                    <mxGeometry x="0.5688" y="3" relative="1" as="geometry">
                        <mxPoint x="-21" y="3" as="offset"/>
                    </mxGeometry>
                </mxCell>
                <mxCell id="41" value="Логистический&lt;br&gt;центр" style="verticalLabelPosition=bottom;html=1;verticalAlign=top;strokeWidth=1;align=center;outlineConnect=0;dashed=0;outlineConnect=0;shape=mxgraph.aws3d.dataCenter;strokeColor=#5E5E5E;aspect=fixed;" vertex="1" parent="1">
                    <mxGeometry x="-90" y="310" width="123" height="142" as="geometry"/>
                </mxCell>
            </root>
        </mxGraphModel>
    </diagram>
</mxfile>
